# xmcd CD database file
#
# Track frame offsets:
#	150
#	34528
#	72139
#	119001
#	150242
#	194493
#	229157
#	253349
#	282794
#
# Disc length: 4188 seconds
#
# Revision: 0
# Processed by: cddbd v1.5.2PL0 Copyright (c) Steve Scherf et al.
# Submitted via: CDex 1.79
#
DISCID=7a105a09
DTITLE=Jimmy Smith  - Eight Classic Albums Vol 2   CD1
DYEAR=1900
DGENRE=Jazz
TTITLE0=Plum Nellie
TTITLE1=Billies Bounce
TTITLE2=The Duel
TTITLE3=Bun's a Plenty
TTITLE4=Midnight Special
TTITLE5=A Subtle One
TTITLE6=Jumpin' the Blues
TTITLE7=Why Was I Born
TTITLE8=On O'Clock Jump
EXTD=
EXTT0=
EXTT1=
EXTT2=
EXTT3=
EXTT4=
EXTT5=
EXTT6=
EXTT7=
EXTT8=
PLAYORDER=
